<svg width="124" height="18" viewBox="0 0 124 18" fill="none" xmlns="http://www.w3.org/2000/svg">
<path d="M6.32 15.14C5.29333 15.14 4.37333 14.9733 3.56 14.64C2.74667 14.3067 2.09333 13.8133 1.6 13.16C1.12 12.5067 0.866667 11.72 0.84 10.8H4.48C4.53333 11.32 4.71333 11.72 5.02 12C5.32667 12.2667 5.72667 12.4 6.22 12.4C6.72667 12.4 7.12667 12.2867 7.42 12.06C7.71333 11.82 7.86 11.4933 7.86 11.08C7.86 10.7333 7.74 10.4467 7.5 10.22C7.27333 9.99333 6.98667 9.80667 6.64 9.66C6.30667 9.51333 5.82667 9.34667 5.2 9.16C4.29333 8.88 3.55333 8.6 2.98 8.32C2.40667 8.04 1.91333 7.62667 1.5 7.08C1.08667 6.53333 0.88 5.82 0.88 4.94C0.88 3.63333 1.35333 2.61333 2.3 1.88C3.24667 1.13333 4.48 0.76 6 0.76C7.54667 0.76 8.79333 1.13333 9.74 1.88C10.6867 2.61333 11.1933 3.64 11.26 4.96H7.56C7.53333 4.50667 7.36667 4.15333 7.06 3.9C6.75333 3.63333 6.36 3.5 5.88 3.5C5.46667 3.5 5.13333 3.61333 4.88 3.84C4.62667 4.05333 4.5 4.36667 4.5 4.78C4.5 5.23333 4.71333 5.58667 5.14 5.84C5.56667 6.09333 6.23333 6.36667 7.14 6.66C8.04667 6.96667 8.78 7.26 9.34 7.54C9.91333 7.82 10.4067 8.22667 10.82 8.76C11.2333 9.29333 11.44 9.98 11.44 10.82C11.44 11.62 11.2333 12.3467 10.82 13C10.42 13.6533 9.83333 14.1733 9.06 14.56C8.28667 14.9467 7.37333 15.14 6.32 15.14ZM23.5447 17.4L21.7447 14.98C21.2114 15.0867 20.6914 15.14 20.1847 15.14C18.8647 15.14 17.6514 14.8333 16.5447 14.22C15.4514 13.6067 14.578 12.7533 13.9247 11.66C13.2847 10.5533 12.9647 9.31333 12.9647 7.94C12.9647 6.56667 13.2847 5.33333 13.9247 4.24C14.578 3.14667 15.4514 2.29333 16.5447 1.68C17.6514 1.06667 18.8647 0.76 20.1847 0.76C21.5047 0.76 22.7114 1.06667 23.8047 1.68C24.9114 2.29333 25.778 3.14667 26.4047 4.24C27.0447 5.33333 27.3647 6.56667 27.3647 7.94C27.3647 9.14 27.118 10.24 26.6247 11.24C26.1447 12.2267 25.4714 13.0467 24.6047 13.7L27.6847 17.4H23.5447ZM16.4647 7.94C16.4647 9.18 16.798 10.1733 17.4647 10.92C18.1447 11.6533 19.0514 12.02 20.1847 12.02C21.3047 12.02 22.198 11.6467 22.8647 10.9C23.5447 10.1533 23.8847 9.16667 23.8847 7.94C23.8847 6.7 23.5447 5.71333 22.8647 4.98C22.198 4.23333 21.3047 3.86 20.1847 3.86C19.0514 3.86 18.1447 4.22667 17.4647 4.96C16.798 5.69333 16.4647 6.68667 16.4647 7.94ZM32.6664 0.96V9.36C32.6664 10.2 32.8731 10.8467 33.2864 11.3C33.6997 11.7533 34.3064 11.98 35.1064 11.98C35.9064 11.98 36.5197 11.7533 36.9464 11.3C37.3731 10.8467 37.5864 10.2 37.5864 9.36V0.96H41.0064V9.34C41.0064 10.5933 40.7397 11.6533 40.2064 12.52C39.6731 13.3867 38.9531 14.04 38.0464 14.48C37.1531 14.92 36.1531 15.14 35.0464 15.14C33.9397 15.14 32.9464 14.9267 32.0664 14.5C31.1997 14.06 30.5131 13.4067 30.0064 12.54C29.4997 11.66 29.2464 10.5933 29.2464 9.34V0.96H32.6664ZM52.148 12.52H46.908L46.068 15H42.488L47.568 0.96H51.528L56.608 15H52.988L52.148 12.52ZM51.268 9.88L49.528 4.74L47.808 9.88H51.268ZM63.4141 0.96C64.8941 0.96 66.1874 1.25333 67.2941 1.84C68.4007 2.42667 69.2541 3.25333 69.8541 4.32C70.4674 5.37333 70.7741 6.59333 70.7741 7.98C70.7741 9.35333 70.4674 10.5733 69.8541 11.64C69.2541 12.7067 68.3941 13.5333 67.2741 14.12C66.1674 14.7067 64.8807 15 63.4141 15H58.1541V0.96H63.4141ZM63.1941 12.04C64.4874 12.04 65.4941 11.6867 66.2141 10.98C66.9341 10.2733 67.2941 9.27333 67.2941 7.98C67.2941 6.68667 66.9341 5.68 66.2141 4.96C65.4941 4.24 64.4874 3.88 63.1941 3.88H61.5741V12.04H63.1941ZM80.3436 0.96V15H76.9236V0.96H80.3436ZM89.462 15.14C88.142 15.14 86.9287 14.8333 85.822 14.22C84.7287 13.6067 83.8554 12.7533 83.202 11.66C82.562 10.5533 82.242 9.31333 82.242 7.94C82.242 6.56667 82.562 5.33333 83.202 4.24C83.8554 3.14667 84.7287 2.29333 85.822 1.68C86.9287 1.06667 88.142 0.76 89.462 0.76C90.782 0.76 91.9887 1.06667 93.082 1.68C94.1887 2.29333 95.0554 3.14667 95.682 4.24C96.322 5.33333 96.642 6.56667 96.642 7.94C96.642 9.31333 96.322 10.5533 95.682 11.66C95.042 12.7533 94.1754 13.6067 93.082 14.22C91.9887 14.8333 90.782 15.14 89.462 15.14ZM89.462 12.02C90.582 12.02 91.4754 11.6467 92.142 10.9C92.822 10.1533 93.162 9.16667 93.162 7.94C93.162 6.7 92.822 5.71333 92.142 4.98C91.4754 4.23333 90.582 3.86 89.462 3.86C88.3287 3.86 87.422 4.22667 86.742 4.96C86.0754 5.69333 85.742 6.68667 85.742 7.94C85.742 9.18 86.0754 10.1733 86.742 10.92C87.422 11.6533 88.3287 12.02 89.462 12.02ZM108.645 0.96V3.7H104.925V15H101.505V3.7H97.7847V0.96H108.645ZM119.101 12.52H113.861L113.021 15H109.441L114.521 0.96H118.481L123.561 15H119.941L119.101 12.52ZM118.221 9.88L116.481 4.74L114.761 9.88H118.221Z" fill="#243A5A"/>
</svg>
