<svg width="175" height="40" viewBox="0 0 175 40" fill="none" xmlns="http://www.w3.org/2000/svg">
<path d="M0 20C0 10.5719 0 5.85786 2.92893 2.92893C5.85786 0 10.5719 0 20 0C29.4281 0 34.1421 0 37.0711 2.92893C40 5.85786 40 10.5719 40 20C40 29.4281 40 34.1421 37.0711 37.0711C34.1421 40 29.4281 40 20 40C10.5719 40 5.85786 40 2.92893 37.0711C0 34.1421 0 29.4281 0 20Z" fill="#243A5A"/>
<path d="M23.9999 26C24.5522 26 25.01 26.4521 24.9003 26.9934C24.7064 27.9494 24.2354 28.8355 23.5354 29.5355C22.5978 30.4732 21.326 31 19.9999 31C18.6738 31 17.4021 30.4732 16.4644 29.5355C15.7644 28.8355 15.2934 27.9494 15.0996 26.9934C14.9898 26.4521 15.4476 26 15.9999 26H23.9999Z" fill="#2DF8BB"/>
<path d="M26.1022 17.7765C25.5687 17.9194 25.242 18.4775 25.5125 18.959C25.7972 19.4658 26.191 19.9081 26.6701 20.2514C27.4223 20.7904 28.3381 21.052 29.2616 20.9914C30.185 20.9309 31.0589 20.5521 31.7343 19.9195C32.4098 19.2869 32.8449 18.4396 32.9657 17.5221C33.0865 16.6046 32.8855 15.6736 32.3968 14.8877C31.9081 14.1019 31.162 13.5098 30.2857 13.2123C29.4094 12.9148 28.4571 12.9304 27.591 13.2564C27.0394 13.464 26.5446 13.7893 26.1384 14.2051C25.7525 14.6002 25.9236 15.2239 26.4019 15.5L26.9092 15.7929C27.6807 16.2384 27.5286 17.3943 26.668 17.6249L26.1022 17.7765Z" fill="#2DF8BB"/>
<path d="M13.8979 17.7765C14.4314 17.9194 14.7581 18.4775 14.4876 18.959C14.2029 19.4658 13.8091 19.9081 13.3301 20.2514C12.5779 20.7904 11.662 21.052 10.7386 20.9914C9.81508 20.9309 8.94119 20.5521 8.26576 19.9195C7.59033 19.2869 7.15514 18.4396 7.03435 17.5221C6.91356 16.6046 7.11463 15.6736 7.60332 14.8877C8.092 14.1019 8.83806 13.5098 9.71437 13.2123C10.5907 12.9148 11.5431 12.9304 12.4092 13.2564C12.9607 13.464 13.4556 13.7893 13.8618 14.2051C14.2477 14.6002 14.0765 15.2239 13.5982 15.5L13.0909 15.7929C12.3194 16.2384 12.4716 17.3943 13.3321 17.6249L13.8979 17.7765Z" fill="#2DF8BB"/>
<path d="M51.32 27.14C50.2933 27.14 49.3733 26.9733 48.56 26.64C47.7467 26.3067 47.0933 25.8133 46.6 25.16C46.12 24.5067 45.8667 23.72 45.84 22.8H49.48C49.5333 23.32 49.7133 23.72 50.02 24C50.3267 24.2667 50.7267 24.4 51.22 24.4C51.7267 24.4 52.1267 24.2867 52.42 24.06C52.7133 23.82 52.86 23.4933 52.86 23.08C52.86 22.7333 52.74 22.4467 52.5 22.22C52.2733 21.9933 51.9867 21.8067 51.64 21.66C51.3067 21.5133 50.8267 21.3467 50.2 21.16C49.2933 20.88 48.5533 20.6 47.98 20.32C47.4067 20.04 46.9133 19.6267 46.5 19.08C46.0867 18.5333 45.88 17.82 45.88 16.94C45.88 15.6333 46.3533 14.6133 47.3 13.88C48.2467 13.1333 49.48 12.76 51 12.76C52.5467 12.76 53.7933 13.1333 54.74 13.88C55.6867 14.6133 56.1933 15.64 56.26 16.96H52.56C52.5333 16.5067 52.3667 16.1533 52.06 15.9C51.7533 15.6333 51.36 15.5 50.88 15.5C50.4667 15.5 50.1333 15.6133 49.88 15.84C49.6267 16.0533 49.5 16.3667 49.5 16.78C49.5 17.2333 49.7133 17.5867 50.14 17.84C50.5667 18.0933 51.2333 18.3667 52.14 18.66C53.0467 18.9667 53.78 19.26 54.34 19.54C54.9133 19.82 55.4067 20.2267 55.82 20.76C56.2333 21.2933 56.44 21.98 56.44 22.82C56.44 23.62 56.2333 24.3467 55.82 25C55.42 25.6533 54.8333 26.1733 54.06 26.56C53.2867 26.9467 52.3733 27.14 51.32 27.14ZM68.5447 29.4L66.7447 26.98C66.2114 27.0867 65.6914 27.14 65.1847 27.14C63.8647 27.14 62.6514 26.8333 61.5447 26.22C60.4514 25.6067 59.578 24.7533 58.9247 23.66C58.2847 22.5533 57.9647 21.3133 57.9647 19.94C57.9647 18.5667 58.2847 17.3333 58.9247 16.24C59.578 15.1467 60.4514 14.2933 61.5447 13.68C62.6514 13.0667 63.8647 12.76 65.1847 12.76C66.5047 12.76 67.7114 13.0667 68.8047 13.68C69.9114 14.2933 70.778 15.1467 71.4047 16.24C72.0447 17.3333 72.3647 18.5667 72.3647 19.94C72.3647 21.14 72.118 22.24 71.6247 23.24C71.1447 24.2267 70.4714 25.0467 69.6047 25.7L72.6847 29.4H68.5447ZM61.4647 19.94C61.4647 21.18 61.798 22.1733 62.4647 22.92C63.1447 23.6533 64.0514 24.02 65.1847 24.02C66.3047 24.02 67.198 23.6467 67.8647 22.9C68.5447 22.1533 68.8847 21.1667 68.8847 19.94C68.8847 18.7 68.5447 17.7133 67.8647 16.98C67.198 16.2333 66.3047 15.86 65.1847 15.86C64.0514 15.86 63.1447 16.2267 62.4647 16.96C61.798 17.6933 61.4647 18.6867 61.4647 19.94ZM77.6664 12.96V21.36C77.6664 22.2 77.8731 22.8467 78.2864 23.3C78.6997 23.7533 79.3064 23.98 80.1064 23.98C80.9064 23.98 81.5197 23.7533 81.9464 23.3C82.3731 22.8467 82.5864 22.2 82.5864 21.36V12.96H86.0064V21.34C86.0064 22.5933 85.7397 23.6533 85.2064 24.52C84.6731 25.3867 83.9531 26.04 83.0464 26.48C82.1531 26.92 81.1531 27.14 80.0464 27.14C78.9397 27.14 77.9464 26.9267 77.0664 26.5C76.1997 26.06 75.5131 25.4067 75.0064 24.54C74.4997 23.66 74.2464 22.5933 74.2464 21.34V12.96H77.6664ZM97.148 24.52H91.908L91.068 27H87.488L92.568 12.96H96.528L101.608 27H97.988L97.148 24.52ZM96.268 21.88L94.528 16.74L92.808 21.88H96.268ZM108.414 12.96C109.894 12.96 111.187 13.2533 112.294 13.84C113.401 14.4267 114.254 15.2533 114.854 16.32C115.467 17.3733 115.774 18.5933 115.774 19.98C115.774 21.3533 115.467 22.5733 114.854 23.64C114.254 24.7067 113.394 25.5333 112.274 26.12C111.167 26.7067 109.881 27 108.414 27H103.154V12.96H108.414ZM108.194 24.04C109.487 24.04 110.494 23.6867 111.214 22.98C111.934 22.2733 112.294 21.2733 112.294 19.98C112.294 18.6867 111.934 17.68 111.214 16.96C110.494 16.24 109.487 15.88 108.194 15.88H106.574V24.04H108.194ZM125.344 12.96V27H121.924V12.96H125.344ZM134.462 27.14C133.142 27.14 131.929 26.8333 130.822 26.22C129.729 25.6067 128.855 24.7533 128.202 23.66C127.562 22.5533 127.242 21.3133 127.242 19.94C127.242 18.5667 127.562 17.3333 128.202 16.24C128.855 15.1467 129.729 14.2933 130.822 13.68C131.929 13.0667 133.142 12.76 134.462 12.76C135.782 12.76 136.989 13.0667 138.082 13.68C139.189 14.2933 140.055 15.1467 140.682 16.24C141.322 17.3333 141.642 18.5667 141.642 19.94C141.642 21.3133 141.322 22.5533 140.682 23.66C140.042 24.7533 139.175 25.6067 138.082 26.22C136.989 26.8333 135.782 27.14 134.462 27.14ZM134.462 24.02C135.582 24.02 136.475 23.6467 137.142 22.9C137.822 22.1533 138.162 21.1667 138.162 19.94C138.162 18.7 137.822 17.7133 137.142 16.98C136.475 16.2333 135.582 15.86 134.462 15.86C133.329 15.86 132.422 16.2267 131.742 16.96C131.075 17.6933 130.742 18.6867 130.742 19.94C130.742 21.18 131.075 22.1733 131.742 22.92C132.422 23.6533 133.329 24.02 134.462 24.02ZM153.645 12.96V15.7H149.925V27H146.505V15.7H142.785V12.96H153.645ZM164.101 24.52H158.861L158.021 27H154.441L159.521 12.96H163.481L168.561 27H164.941L164.101 24.52ZM163.221 21.88L161.481 16.74L159.761 21.88H163.221Z" fill="#243A5A"/>
</svg>
